<svg xmlns="http://www.w3.org/2000/svg" xmlns:svg="http://www.w3.org/2000/svg" xmlns:xlink="http://www.w3.org/1999/xlink" id="svg6" width="28" height="40" fill="#000" version="1.1" viewBox="0 0 14 20"><defs id="defs10"><linearGradient id="linearGradient1391" x1="12" x2="12" y1="2" y2="21.995" gradientTransform="translate(-5,-2)" gradientUnits="userSpaceOnUse" xlink:href="#linearGradient1389"/><linearGradient id="linearGradient1389"><stop style="stop-color:#ffb300;stop-opacity:1" id="stop1393" offset="0"/><stop style="stop-color:#ffc107;stop-opacity:1" id="stop1395" offset="1"/></linearGradient></defs><path id="path2" fill="none" d="M 0,0 H 24 V 24 H 0 Z"/><path style="fill:#000;fill-opacity:0;stroke-width:23.9401" id="path883" d="m 17.047982,35.638049 c -0.222135,-0.149696 -0.52636,-0.453921 -0.676056,-0.676056 -0.262259,-0.389166 -0.272175,-0.498192 -0.272175,-2.992566 v -2.588686 l -0.723654,-0.526977 c -2.056734,-1.497752 -3.963301,-4.279625 -4.718052,-6.884115 -0.47351,-1.633985 -0.578704,-2.571999 -0.510616,-4.55319 0.07675,-2.233155 0.411692,-3.610764 1.342501,-5.521618 3.06505,-6.2922332 10.219906,-9.302508 16.912292,-7.1155379 4.402696,1.4387338 7.848557,5.0983474 9.081307,9.6446369 0.29737,1.096679 0.325301,1.387631 0.333241,3.471322 0.0081,2.135376 -0.01165,2.347017 -0.323795,3.464406 -0.389236,1.393321 -1.128018,3.008412 -1.939686,4.240445 -0.659234,1.000655 -2.178887,2.651561 -3.057566,3.32165 l -0.595474,0.454114 v 2.591117 c 0,2.496904 -0.0099,2.605804 -0.272175,2.994999 -0.149696,0.222135 -0.453921,0.52636 -0.676056,0.676056 l -0.403881,0.272175 H 24 17.451862 Z" transform="scale(0.5)"/><path style="fill:#000;fill-opacity:0;stroke-width:23.9401" id="path922" d="m 17.047982,35.638049 c -0.222135,-0.149696 -0.52636,-0.453921 -0.676056,-0.676056 -0.262259,-0.389166 -0.272175,-0.498192 -0.272175,-2.992566 v -2.588686 l -0.723654,-0.526977 c -2.056734,-1.497752 -3.963301,-4.279625 -4.718052,-6.884115 -0.47351,-1.633985 -0.578704,-2.571999 -0.510616,-4.55319 0.07675,-2.233155 0.411692,-3.610764 1.342501,-5.521618 3.06505,-6.2922332 10.219906,-9.302508 16.912292,-7.1155379 4.402696,1.4387338 7.848557,5.0983474 9.081307,9.6446369 0.29737,1.096679 0.325301,1.387631 0.333241,3.471322 0.0081,2.135376 -0.01165,2.347017 -0.323795,3.464406 -0.389236,1.393321 -1.128018,3.008412 -1.939686,4.240445 -0.659234,1.000655 -2.178887,2.651561 -3.057566,3.32165 l -0.595474,0.454114 v 2.591117 c 0,2.496904 -0.0099,2.605804 -0.272175,2.994999 -0.149696,0.222135 -0.453921,0.52636 -0.676056,0.676056 l -0.403881,0.272175 H 24 17.451862 Z" transform="scale(0.5)"/><path id="path4" d="m 4,18.999999 c 0,0.5 0.4,1 1,1 h 4 c 0.6,0 1,-0.5 1,-1 v -1 H 4 Z M 7,0 C 3.1,0 0,3.1 0,7 0,9.4 1.2,11.5 3,12.7 V 15 c 0,0.5 0.4,1 1,1 h 6 c 0.6,0 1,-0.5 1,-1 V 12.7 C 12.8,11.4 14,9.3 14,7 14,3.1 10.9,0 7,0 Z" style="fill:url(#linearGradient1391);fill-opacity:1"/></svg>