<svg xmlns="http://www.w3.org/2000/svg" width="94" height="104" fill="none" viewBox="0 0 94 104"><ellipse cx="47.247" cy="3.691" fill="#EFEFEF" rx="3.937" ry="3.691"/><ellipse cx="47.247" cy="3.691" fill="#EFEFEF" rx="3.937" ry="3.691"/><ellipse cx="5.414" cy="27.807" fill="#EFEFEF" rx="3.937" ry="3.691"/><ellipse cx="89.079" cy="27.807" fill="#EFEFEF" rx="3.937" ry="3.691"/><ellipse cx="89.079" cy="76.037" fill="#EFEFEF" rx="3.937" ry="3.691"/><ellipse cx="5.414" cy="76.037" fill="#EFEFEF" rx="3.937" ry="3.691"/><ellipse cx="47.247" cy="100.152" fill="#EFEFEF" rx="3.937" ry="3.691"/><circle cx="68.163" cy="88.341" r="5.168" fill="#EFEFEF"/><circle cx="26.33" cy="88.341" r="5.168" fill="#EFEFEF"/><circle cx="26.33" cy="15.503" r="5.168" fill="#EFEFEF"/><circle cx="68.163" cy="15.503" r="5.168" fill="#EFEFEF"/><circle cx="88.833" cy="51.922" r="5.168" fill="#EFEFEF"/><circle cx="5.168" cy="51.922" r="5.168" fill="#EFEFEF"/><ellipse cx="26.33" cy="39.864" fill="#EFEFEF" rx="6.152" ry="6.398"/><ellipse cx="68.163" cy="39.864" fill="#EFEFEF" rx="6.152" ry="6.398"/><ellipse cx="68.163" cy="63.979" fill="#EFEFEF" rx="6.152" ry="6.398"/><ellipse cx="26.33" cy="63.979" fill="#EFEFEF" rx="6.152" ry="6.398"/><circle cx="47.247" cy="76.283" r="6.398" fill="#EFEFEF"/><circle cx="47.246" cy="52.168" r="7.382" fill="#EFEFEF"/><circle cx="47.247" cy="28.052" r="6.398" fill="#EFEFEF"/></svg>